<mxfile host="app.diagrams.net" modified="2024-07-09T09:15:55.971Z" agent="Mozilla/5.0 (Macintosh; Intel Mac OS X 10_15_7) AppleWebKit/537.36 (KHTML, like Gecko) Chrome/126.0.0.0 Safari/537.36" etag="PRa4iRHqgbRDJUEg0cqU" version="24.6.4" type="github">
  <diagram name="第 1 页" id="6g1x5-ycKN2szAlPrBdQ">
    <mxGraphModel dx="692" dy="410" grid="1" gridSize="10" guides="1" tooltips="1" connect="1" arrows="1" fold="1" page="1" pageScale="1" pageWidth="827" pageHeight="1169" math="0" shadow="0">
      <root>
        <mxCell id="0" />
        <mxCell id="1" parent="0" />
        <mxCell id="rqMtfukKvY8dzJU4S8m8-5" value="" style="group" vertex="1" connectable="0" parent="1">
          <mxGeometry x="90" y="120" width="100" height="60" as="geometry" />
        </mxCell>
        <mxCell id="rqMtfukKvY8dzJU4S8m8-2" value="" style="rounded=0;whiteSpace=wrap;html=1;" vertex="1" parent="rqMtfukKvY8dzJU4S8m8-5">
          <mxGeometry width="100" height="60" as="geometry" />
        </mxCell>
        <mxCell id="rqMtfukKvY8dzJU4S8m8-3" value="数字孪生驱动的装配过程监控" style="text;html=1;align=center;verticalAlign=middle;whiteSpace=wrap;rounded=0;" vertex="1" parent="rqMtfukKvY8dzJU4S8m8-5">
          <mxGeometry x="15" y="15" width="70" height="30" as="geometry" />
        </mxCell>
        <mxCell id="rqMtfukKvY8dzJU4S8m8-13" value="" style="group" vertex="1" connectable="0" parent="1">
          <mxGeometry x="90" y="270" width="100" height="60" as="geometry" />
        </mxCell>
        <mxCell id="rqMtfukKvY8dzJU4S8m8-6" value="" style="strokeWidth=2;html=1;shape=mxgraph.flowchart.document2;whiteSpace=wrap;size=0.25;" vertex="1" parent="rqMtfukKvY8dzJU4S8m8-13">
          <mxGeometry width="100" height="60" as="geometry" />
        </mxCell>
        <mxCell id="rqMtfukKvY8dzJU4S8m8-10" value="XXX发动机装配过程数字孪生模型" style="text;html=1;align=center;verticalAlign=middle;whiteSpace=wrap;rounded=0;" vertex="1" parent="rqMtfukKvY8dzJU4S8m8-13">
          <mxGeometry x="15" y="10" width="70" height="30" as="geometry" />
        </mxCell>
        <mxCell id="rqMtfukKvY8dzJU4S8m8-14" value="" style="group" vertex="1" connectable="0" parent="1">
          <mxGeometry x="90" y="390" width="100" height="100" as="geometry" />
        </mxCell>
        <mxCell id="rqMtfukKvY8dzJU4S8m8-11" value="" style="strokeWidth=2;html=1;shape=mxgraph.flowchart.database;whiteSpace=wrap;" vertex="1" parent="rqMtfukKvY8dzJU4S8m8-14">
          <mxGeometry width="100" height="100" as="geometry" />
        </mxCell>
        <mxCell id="rqMtfukKvY8dzJU4S8m8-12" value="装配现场运行数据" style="text;html=1;align=center;verticalAlign=middle;whiteSpace=wrap;rounded=0;" vertex="1" parent="rqMtfukKvY8dzJU4S8m8-14">
          <mxGeometry x="20" y="50" width="70" height="30" as="geometry" />
        </mxCell>
        <mxCell id="rqMtfukKvY8dzJU4S8m8-16" value="" style="shape=flexArrow;endArrow=classic;html=1;rounded=0;exitX=0.5;exitY=0;exitDx=0;exitDy=0;exitPerimeter=0;" edge="1" parent="1" source="rqMtfukKvY8dzJU4S8m8-6" target="rqMtfukKvY8dzJU4S8m8-2">
          <mxGeometry width="50" height="50" relative="1" as="geometry">
            <mxPoint x="140" y="260" as="sourcePoint" />
            <mxPoint x="190" y="210" as="targetPoint" />
          </mxGeometry>
        </mxCell>
        <mxCell id="rqMtfukKvY8dzJU4S8m8-17" value="" style="shape=flexArrow;endArrow=classic;html=1;rounded=0;exitX=0.5;exitY=0;exitDx=0;exitDy=0;exitPerimeter=0;" edge="1" parent="1" source="rqMtfukKvY8dzJU4S8m8-11">
          <mxGeometry width="50" height="50" relative="1" as="geometry">
            <mxPoint x="140" y="370" as="sourcePoint" />
            <mxPoint x="139.6" y="320" as="targetPoint" />
          </mxGeometry>
        </mxCell>
        <mxCell id="rqMtfukKvY8dzJU4S8m8-20" value="" style="group" vertex="1" connectable="0" parent="1">
          <mxGeometry x="250" y="60" width="100" height="60" as="geometry" />
        </mxCell>
        <mxCell id="rqMtfukKvY8dzJU4S8m8-18" value="" style="strokeWidth=2;html=1;shape=mxgraph.flowchart.terminator;whiteSpace=wrap;" vertex="1" parent="rqMtfukKvY8dzJU4S8m8-20">
          <mxGeometry width="100" height="60" as="geometry" />
        </mxCell>
        <mxCell id="rqMtfukKvY8dzJU4S8m8-19" value="创建XXX型号发动机" style="text;html=1;align=center;verticalAlign=middle;whiteSpace=wrap;rounded=0;" vertex="1" parent="rqMtfukKvY8dzJU4S8m8-20">
          <mxGeometry x="15" y="20" width="70" height="30" as="geometry" />
        </mxCell>
        <mxCell id="rqMtfukKvY8dzJU4S8m8-21" value="" style="rounded=1;whiteSpace=wrap;html=1;absoluteArcSize=1;arcSize=14;strokeWidth=2;" vertex="1" parent="1">
          <mxGeometry x="370" y="135" width="130" height="30" as="geometry" />
        </mxCell>
        <mxCell id="rqMtfukKvY8dzJU4S8m8-25" value="机型工作流模版" style="text;html=1;align=center;verticalAlign=middle;whiteSpace=wrap;rounded=0;" vertex="1" parent="1">
          <mxGeometry x="390" y="135" width="100" height="30" as="geometry" />
        </mxCell>
        <mxCell id="rqMtfukKvY8dzJU4S8m8-26" value="" style="rounded=1;whiteSpace=wrap;html=1;absoluteArcSize=1;arcSize=14;strokeWidth=2;" vertex="1" parent="1">
          <mxGeometry x="220" y="135" width="130" height="30" as="geometry" />
        </mxCell>
        <mxCell id="rqMtfukKvY8dzJU4S8m8-27" value="复制机型工作流模版" style="text;html=1;align=center;verticalAlign=middle;whiteSpace=wrap;rounded=0;" vertex="1" parent="1">
          <mxGeometry x="230" y="135" width="110" height="30" as="geometry" />
        </mxCell>
        <mxCell id="rqMtfukKvY8dzJU4S8m8-28" value="" style="rounded=1;whiteSpace=wrap;html=1;absoluteArcSize=1;arcSize=14;strokeWidth=2;" vertex="1" parent="1">
          <mxGeometry x="220" y="190" width="130" height="30" as="geometry" />
        </mxCell>
        <mxCell id="rqMtfukKvY8dzJU4S8m8-29" value="生产装配过程孪生模型" style="text;html=1;align=center;verticalAlign=middle;whiteSpace=wrap;rounded=0;" vertex="1" parent="1">
          <mxGeometry x="220" y="190" width="130" height="30" as="geometry" />
        </mxCell>
      </root>
    </mxGraphModel>
  </diagram>
</mxfile>
